0
SECTION
2
HEADER
9
$INSUNITS
70
4
9
$ACADVER
1
AC1014
9
$HANDSEED
5
FFFF
0
ENDSEC
0
SECTION
2
TABLES
0
TABLE
2
VPORT
5
8
100
AcDbSymbolTable
0
ENDTAB
0
TABLE
2
LTYPE
5
5
100
AcDbSymbolTable
0
LTYPE
5
14
100
AcDbSymbolTableRecord
100
AcDbLinetypeTableRecord
2
BYBLOCK
70
0
0
LTYPE
5
15
100
AcDbSymbolTableRecord
100
AcDbLinetypeTableRecord
2
BYLAYER
70
0
0
LTYPE
5
16
100
AcDbSymbolTableRecord
100
AcDbLinetypeTableRecord
2
DASHED
70
0
3
Dashed __ __ __ __ __ __ __ __ __ __ __ __ __ _
72
65
73
2
40
0.75
49
0.5
74
0
49
-0.25
74
0
0
ENDTAB
0
TABLE
2
LAYER
5
2
100
AcDbSymbolTable
70
2
0
LAYER
5
50
100
AcDbSymbolTableRecord
100
AcDbLayerTableRecord
2
0
70
0
62
7
6
CONTINUOUS
0
ENDTAB
0
TABLE
2
STYLE
5
3
100
AcDbSymbolTable
70
1
0
STYLE
5
11
100
AcDbSymbolTableRecord
100
AcDbTextStyleTableRecord
2
STANDARD
70
0
0
ENDTAB
0
TABLE
2
VIEW
5
6
100
AcDbSymbolTable
70
0
0
ENDTAB
0
TABLE
2
UCS
5
7
100
AcDbSymbolTable
70
0
0
ENDTAB
0
TABLE
2
APPID
5
9
100
AcDbSymbolTable
70
2
0
APPID
5
12
100
AcDbSymbolTableRecord
100
AcDbRegAppTableRecord
2
ACAD
70
0
0
ENDTAB
0
TABLE
2
DIMSTYLE
5
A
100
AcDbSymbolTable
70
1
0
ENDTAB
0
TABLE
2
BLOCK_RECORD
5
1
100
AcDbSymbolTable
70
1
0
BLOCK_RECORD
5
1F
100
AcDbSymbolTableRecord
100
AcDbBlockTableRecord
2
*MODEL_SPACE
0
BLOCK_RECORD
5
1B
100
AcDbSymbolTableRecord
100
AcDbBlockTableRecord
2
*PAPER_SPACE
0
ENDTAB
0
ENDSEC
0
SECTION
2
BLOCKS
0
BLOCK
5
20
100
AcDbEntity
100
AcDbBlockBegin
2
*MODEL_SPACE
0
ENDBLK
5
21
100
AcDbEntity
100
AcDbBlockEnd
0
BLOCK
5
1C
100
AcDbEntity
100
AcDbBlockBegin
2
*PAPER_SPACE
0
ENDBLK
5
1D
100
AcDbEntity
100
AcDbBlockEnd
0
ENDSEC
0
SECTION
2
ENTITIES
0
LWPOLYLINE
5
100
100
AcDbEntity
8
0
100
AcDbPolyline
90
29
70
1
43
0.0
10
-27.22552861152365
20
-45.5
10
-25.322414052957249
20
-45.5
10
-25.322414052957249
20
-48.5
10
-7.707686061024912
20
-48.5
10
-7.707686061024912
20
-45.5
10
-7.4276192340097236
20
-45.5
10
1.2412698386905285
20
-36.831110927299747
10
1.2412698386905285
20
-33.060047310513212
10
4.2412698386905312
20
-33.060047310513212
10
4.2412698386905312
20
-17.995499822290363
10
1.2412698386905285
20
-17.995499822290363
10
1.2412698386905285
20
-11.976118667808153
10
4.2412698386905312
20
-11.976118667808153
10
4.2412698386905312
20
2.412455535686755
10
1.241269838690533
20
2.412455535686755
10
1.241269838690533
20
6.8205640996449102
10
-7.4276192340097236
20
15.489453172345167
10
-8.1502098768141451
20
15.489453172345167
10
-8.1502098768141451
20
18.489453172345172
10
-23.922118997991348
20
18.489453172345172
10
-23.922118997991348
20
15.489453172345167
10
-25.5
20
15.489453172345167
10
-25.5
20
2.0775075539735166
10
-32.117268182679403
20
-4.5397606287058867
10
-34.214928123963574
20
-4.5397606287058867
10
-35.695888368061219
20
-6.1015354060828919
10
-36.83021811650822
20
-6.1015354060829008
10
-36.83021811650822
20
-29.047997141621885
10
-27.22552861152365
20
-38.652686646606469
0
LWPOLYLINE
5
101
100
AcDbEntity
8
0
100
AcDbPolyline
90
29
70
1
43
0.0
10
1.241269838690533
20
2.412455535686755
10
1.241269838690533
20
6.8205640996449102
10
-7.4276192340097236
20
15.489453172345167
10
-8.1502098768141451
20
15.489453172345167
10
-8.1502098768141451
20
18.489453172345172
10
-23.922118997991348
20
18.489453172345172
10
-23.922118997991348
20
15.489453172345167
10
-25.5
20
15.489453172345167
10
-25.5
20
2.0775075539735166
10
-32.117268182679403
20
-4.5397606287058867
10
-34.214928123963574
20
-4.5397606287058867
10
-35.695888368061219
20
-6.1015354060828919
10
-36.83021811650822
20
-6.1015354060829008
10
-36.83021811650822
20
-29.047997141621885
10
-27.22552861152365
20
-38.652686646606469
10
-27.22552861152365
20
-45.5
10
-25.322414052957249
20
-45.5
10
-25.322414052957249
20
-48.5
10
-7.707686061024912
20
-48.5
10
-7.707686061024912
20
-45.5
10
-7.4276192340097236
20
-45.5
10
1.2412698386905285
20
-36.831110927299747
10
1.2412698386905285
20
-33.060047310513212
10
4.2412698386905312
20
-33.060047310513212
10
4.2412698386905312
20
-17.995499822290363
10
1.2412698386905285
20
-17.995499822290363
10
1.2412698386905285
20
-11.976118667808153
10
4.2412698386905312
20
-11.976118667808153
10
4.2412698386905312
20
2.412455535686755
0
ENDSEC
0
SECTION
2
OBJECTS
0
DICTIONARY
5
C
100
AcDbDictionary
3
ACAD_GROUP
350
D
3
ACAD_MLINESTYLE
350
17
0
DICTIONARY
5
D
100
AcDbDictionary
0
DICTIONARY
5
1A
330
C
100
AcDbDictionary
0
DICTIONARY
5
17
100
AcDbDictionary
0
ENDSEC
0
EOF
